<?xml version="1.0" standalone="no"?>
<!DOCTYPE svg PUBLIC "-//W3C//DTD SVG 20010904//EN"
 "http://www.w3.org/TR/2001/REC-SVG-20010904/DTD/svg10.dtd">
<svg version="1.0" xmlns="http://www.w3.org/2000/svg"
 width="480.000000pt" height="480.000000pt" viewBox="0 0 480.000000 480.000000"
 preserveAspectRatio="xMidYMid meet">
<metadata>
Created by potrace 1.11, written by Peter Selinger 2001-2013
</metadata>
<g transform="translate(0.000000,480.000000) scale(0.100000,-0.100000)"
fill="#000000" stroke="none">
<path d="M2680 4233 c-31 -3 -93 -12 -200 -29 -19 -3 -78 -16 -130 -30 -684
-178 -1237 -729 -1498 -1494 -60 -174 -113 -414 -116 -519 -1 -26 12 -32 108
-51 97 -20 184 -25 396 -25 254 0 315 6 494 51 143 36 148 39 161 104 41 201
188 505 305 631 8 9 35 38 60 64 177 190 414 310 610 309 167 -1 250 -78 246
-224 -9 -249 -206 -484 -566 -673 -203 -107 -542 -228 -740 -263 -14 -3 -41
-9 -60 -14 -19 -4 -69 -14 -110 -20 -41 -7 -83 -14 -94 -16 -10 -2 -44 -6 -75
-9 -31 -4 -69 -9 -86 -12 -47 -9 -442 -11 -520 -2 -216 22 -199 19 -320 45
-38 9 -77 17 -85 19 -8 2 -64 16 -125 32 -60 17 -127 29 -148 28 -43 -3 -112
-47 -120 -77 -26 -97 222 -240 571 -328 50 -13 92 -29 93 -34 0 -6 2 -18 4
-26 1 -8 6 -35 10 -60 45 -302 212 -629 434 -850 213 -212 516 -373 781 -415
19 -3 60 -9 90 -14 147 -23 443 -2 567 40 21 7 41 13 45 14 3 0 10 3 14 7 4 5
14 8 21 8 8 0 52 18 99 41 234 113 435 322 486 505 35 123 -16 139 -212 67
-305 -111 -367 -127 -510 -127 -122 0 -198 18 -310 72 -95 47 -218 165 -279
269 -38 63 -85 180 -97 238 -12 61 -24 129 -21 130 1 1 90 5 197 9 107 3 206
8 220 10 14 2 52 7 85 11 107 12 114 13 325 51 65 12 258 68 377 108 625 214
1096 615 1234 1051 30 98 35 286 9 405 -53 244 -188 461 -401 641 -213 181
-481 298 -780 343 -84 12 -344 17 -439 9z"/>
<path d="M3573 1742 c-183 -65 -265 -274 -177 -448 124 -246 487 -225 585 35
40 106 13 242 -64 328 -81 89 -230 126 -344 85z"/>
</g>
</svg>
