<?xml version="1.0" standalone="no"?><!-- Generator: Gravit.io --><svg xmlns="http://www.w3.org/2000/svg" xmlns:xlink="http://www.w3.org/1999/xlink" style="isolation:isolate" viewBox="0 0 415 150" width="415" height="150"><defs><clipPath id="_clipPath_4JRL4v6QICa1QJUeRr6DYc3y3Y8DonRf"><rect width="415" height="150"/></clipPath></defs><g clip-path="url(#_clipPath_4JRL4v6QICa1QJUeRr6DYc3y3Y8DonRf)"><g id="Group"><rect x="0" y="0" width="415" height="150" transform="matrix(1,0,0,1,0,0)" fill="rgb(255,255,255)"/><path d=" M 0 150 L 415 150 L 415 0 L 0 0 L 0 150 Z  M 5.999 5.999 L 409.001 5.999 L 409.001 144.001 L 5.999 144.001 L 5.999 5.999 Z " fill-rule="evenodd" fill="rgb(0,152,218)"/><path d=" M 265.012 150 L 415 150 L 415 0 L 265.012 0 L 265.012 150 Z  M 271.007 5.999 L 409.001 5.999 L 409.001 144.001 L 271.007 144.001 L 271.007 5.999 Z " fill-rule="evenodd" fill="rgb(0,152,218)"/><g id="Group"><path d=" M 42.716 88.999 L 42.716 53.443 L 37.789 53.443 L 37.789 88.999 L 42.716 88.999 Z  M 55.262 63.602 L 50.741 63.602 L 50.741 88.999 L 55.312 88.999 L 55.312 73.71 C 55.312 68.834 58.614 66.345 62.22 66.345 C 66.334 66.345 68.366 68.834 68.366 73.609 L 68.366 88.999 L 72.937 88.999 L 72.937 72.643 C 72.937 66.243 69.788 62.992 63.947 62.992 C 61.306 62.992 57.649 64.212 55.262 66.751 L 55.262 63.602 Z  M 86.092 55.983 L 81.521 57.507 L 81.521 63.602 L 77.966 63.602 L 77.966 66.243 L 81.521 66.243 L 81.521 81.482 C 81.521 86.663 83.959 89.609 89.038 89.609 C 90.765 89.609 92.645 88.999 94.219 87.984 L 93.102 85.444 C 92.238 85.901 91.273 86.307 89.597 86.307 C 86.804 86.307 86.092 84.174 86.092 80.618 L 86.092 66.243 L 92.746 66.243 L 92.746 63.602 L 86.092 63.602 L 86.092 55.983 Z  M 118.092 76.606 C 118.599 69.951 116.009 62.992 108.289 62.992 C 102.549 62.992 96.251 67.005 96.251 75.793 C 96.251 84.733 101.482 89.609 109.406 89.609 C 112.047 89.609 115.196 88.542 117.838 86.663 L 116.517 84.174 C 114.739 85.495 111.895 86.358 109.558 86.358 C 104.53 86.358 100.924 81.685 100.975 76.606 L 118.092 76.606 Z  M 101.279 73.558 C 101.432 70.307 103.362 66.243 108.238 66.243 C 112.25 66.243 113.927 69.596 113.927 73.558 L 101.279 73.558 Z  M 128.199 63.602 L 123.729 63.602 L 123.729 88.999 L 128.301 88.999 L 128.301 75.336 C 128.301 69.697 130.231 67.361 132.567 67.361 C 133.736 67.361 134.853 67.869 135.97 68.428 L 138.053 65.481 C 136.631 63.805 134.955 62.992 133.837 62.992 C 132.771 62.992 131.094 63.754 130.028 64.821 L 128.199 66.751 L 128.199 63.602 Z  M 145.976 88.999 L 145.976 51.665 L 141.405 51.665 L 141.405 88.999 L 145.976 88.999 Z  M 173.607 76.606 C 174.115 69.951 171.525 62.992 163.805 62.992 C 158.065 62.992 151.767 67.005 151.767 75.793 C 151.767 84.733 156.998 89.609 164.922 89.609 C 167.563 89.609 170.712 88.542 173.353 86.663 L 172.033 84.174 C 170.255 85.495 167.411 86.358 165.074 86.358 C 160.046 86.358 156.44 81.685 156.49 76.606 L 173.607 76.606 Z  M 156.795 73.558 C 156.948 70.307 158.878 66.243 163.754 66.243 C 167.766 66.243 169.443 69.596 169.443 73.558 L 156.795 73.558 Z  M 189.607 86.358 C 184.782 86.358 182.445 81.228 182.445 75.793 C 182.445 70.409 184.629 66.243 189.912 66.243 C 194.889 66.243 197.48 70.713 197.48 75.488 C 197.48 81.126 195.143 86.358 189.607 86.358 Z  M 202.051 63.602 L 197.48 63.602 L 197.48 67.107 L 197.378 67.107 C 195.956 64.516 192.705 62.992 189.658 62.992 C 182.395 62.992 177.518 69.393 177.518 75.996 C 177.518 84.123 181.887 89.609 188.896 89.609 C 192.909 89.609 195.601 87.476 197.378 84.987 L 197.48 84.987 L 197.48 88.441 C 197.48 95.095 194.28 98.447 189.048 98.447 C 185.899 98.447 183.055 97.939 179.957 96.162 L 178.687 99.158 C 181.633 100.987 185.391 101.698 189.15 101.698 C 196.007 101.698 202.051 97.787 202.051 88.085 L 202.051 63.602 Z  M 209.467 63.602 L 209.467 88.999 L 214.038 88.999 L 214.038 63.602 L 209.467 63.602 Z  M 211.752 58.319 C 213.987 58.319 214.648 56.592 214.648 55.221 C 214.648 53.951 213.581 52.529 211.752 52.529 C 209.924 52.529 208.857 53.951 208.857 55.221 C 208.857 56.592 209.518 58.319 211.752 58.319 Z  M 235.269 65.329 C 233.949 64.008 231.511 62.992 229.022 62.992 C 224.552 62.992 220.59 65.532 220.59 69.545 C 220.59 72.999 223.13 74.726 226.025 76.809 C 228.412 78.536 231.054 79.806 231.054 82.752 C 231.054 85.241 228.869 86.358 226.736 86.358 C 224.704 86.358 222.724 85.19 221.251 83.818 L 219.016 86.409 C 220.692 88.339 223.943 89.609 226.838 89.609 C 231.511 89.609 235.726 86.714 235.726 82.447 C 235.726 78.891 233.593 76.809 230.342 74.32 C 227.447 72.136 225.111 71.069 225.111 68.935 C 225.111 66.802 227.193 66.04 228.819 66.04 C 230.19 66.04 231.663 66.447 233.492 67.666 L 235.269 65.329 Z " fill-rule="evenodd" fill="rgb(0,152,218)"/></g><g id="Group"><path d=" M 387.411 23.998 L 336.595 23.998 C 336.557 55.283 332.591 95.16 322.937 114.401 C 327.161 120.938 332.007 125.377 336.595 125.708 L 311.148 125.708 L 336.671 125.708 C 364.718 125.818 387.373 89.322 387.411 23.998 Z " fill-rule="evenodd" fill="rgb(26,63,95)"/><path d=" M 298.41 74.89 L 311.114 74.89 C 311.297 95.195 324.882 124.239 336.557 125.747 L 311.114 125.747 C 303.074 125.709 298.444 100.117 298.41 74.89 Z " fill-rule="evenodd" fill="rgb(0,134,85)"/><path d=" M 305.469 67.908 C 312.441 67.908 318.13 62.219 318.13 55.246 C 318.13 48.273 312.441 42.584 305.469 42.584 C 298.496 42.584 292.807 48.273 292.807 55.246 C 292.807 62.219 298.496 67.908 305.469 67.908 Z " fill-rule="evenodd" fill="rgb(246,151,52)"/></g></g></g></svg>